<svg viewBox="0 0 30.24 30.24" xmlns="http://www.w3.org/2000/svg" id="ICONS"><path style="stroke-width:0px;" d="M15.12,30.24C6.79,30.24,0,23.46,0,15.12S6.78,0,15.12,0s15.12,6.78,15.12,15.12-6.78,15.12-15.12,15.12ZM15.12,2.01C7.89,2.01,2,7.89,2,15.13s5.88,13.12,13.12,13.12,13.12-5.88,13.12-13.12S22.36,2.01,15.12,2.01Z"></path><polygon style="stroke-width:0px;" points="16.31 19.41 16.31 11.26 10.97 11.26 10.97 13.26 14.31 13.26 14.31 19.41 11 19.41 11 21.41 19.29 21.41 19.29 19.41 16.31 19.41"></polygon><rect style="stroke-width:0px;" height="2" width="2.44" y="7.54" x="13.57"></rect></svg>